<svg xmlns="http://www.w3.org/2000/svg" width="40" height="40" viewBox="0 0 40 40" fill="none">
  <rect width="40" height="40" rx="8" fill="#0A6EBD"/>
  <circle cx="20" cy="4"  r="1.6" fill="#60D0F8"/>
  <circle cx="26" cy="5"  r="1.6" fill="#00AEEF"/>
  <circle cx="32" cy="9"  r="1.6" fill="#60D0F8"/>
  <circle cx="36" cy="15" r="1.6" fill="#00AEEF"/>
  <circle cx="38" cy="20" r="1.6" fill="#60D0F8"/>
  <circle cx="36" cy="25" r="1.6" fill="#00AEEF"/>
  <circle cx="32" cy="31" r="1.6" fill="#60D0F8"/>
  <circle cx="26" cy="35" r="1.6" fill="#00AEEF"/>
  <circle cx="20" cy="36" r="1.6" fill="#60D0F8"/>
  <circle cx="14" cy="35" r="1.6" fill="#00AEEF"/>
  <circle cx="8"  cy="31" r="1.6" fill="#60D0F8"/>
  <circle cx="4"  cy="25" r="1.6" fill="#00AEEF"/>
  <circle cx="2"  cy="20" r="1.6" fill="#60D0F8"/>
  <circle cx="4"  cy="15" r="1.6" fill="#00AEEF"/>
  <circle cx="8"  cy="9"  r="1.6" fill="#60D0F8"/>
  <circle cx="14" cy="5"  r="1.6" fill="#00AEEF"/>
  <circle cx="20" cy="10" r="1.2" fill="#00AEEF"/>
  <circle cx="27" cy="13" r="1.2" fill="#60D0F8"/>
  <circle cx="30" cy="20" r="1.2" fill="#00AEEF"/>
  <circle cx="27" cy="27" r="1.2" fill="#60D0F8"/>
  <circle cx="20" cy="30" r="1.2" fill="#00AEEF"/>
  <circle cx="13" cy="27" r="1.2" fill="#60D0F8"/>
  <circle cx="10" cy="20" r="1.2" fill="#00AEEF"/>
  <circle cx="13" cy="13" r="1.2" fill="#60D0F8"/>
  <circle cx="20" cy="20" r="1.8" fill="#0A6EBD"/>
  <text x="20" y="23" text-anchor="middle" font-size="6.5" font-weight="bold" fill="white" font-family="sans-serif">MCE</text>
</svg>
